<?xml version="1.0" encoding="UTF-8" standalone="no"?>
<svg
   width="1000"
   height="285.71484"
   version="1.1"
   id="svg4"
   sodipodi:docname="B28n.svg"
   inkscape:version="1.2.2 (b0a84865, 2022-12-01)"
   inkscape:export-filename="B28n.png"
   inkscape:export-xdpi="96"
   inkscape:export-ydpi="96"
   xmlns:inkscape="http://www.inkscape.org/namespaces/inkscape"
   xmlns:sodipodi="http://sodipodi.sourceforge.net/DTD/sodipodi-0.dtd"
   xmlns="http://www.w3.org/2000/svg"
   xmlns:svg="http://www.w3.org/2000/svg">
  <defs
     id="defs8" />
  <sodipodi:namedview
     id="namedview6"
     pagecolor="#ffffff"
     bordercolor="#666666"
     borderopacity="1.0"
     inkscape:pageshadow="2"
     inkscape:pageopacity="0.0"
     inkscape:pagecheckerboard="0"
     showgrid="false"
     inkscape:zoom="0.98471567"
     inkscape:cx="484.91155"
     inkscape:cy="99.013353"
     inkscape:window-width="1728"
     inkscape:window-height="1051"
     inkscape:window-x="0"
     inkscape:window-y="38"
     inkscape:window-maximized="1"
     inkscape:current-layer="svg4"
     inkscape:showpageshadow="0"
     inkscape:deskcolor="#d1d1d1">
    <inkscape:grid
       type="xygrid"
       id="grid4569"
       originx="-1e-05"
       originy="0" />
  </sodipodi:namedview>
  <path
     id="path1314-6"
     style="fill:#000000;stroke-width:11.9048"
     d="M 0 0 L 0 285.71484 L 285.71484 285.71484 L 285.71484 0 L 0 0 z M 357.14258 0 L 357.14258 285.71484 L 642.85742 285.71484 L 642.85742 0 L 357.14258 0 z M 714.28516 0 L 714.28516 285.71484 L 1000 285.71484 L 1000 0 L 714.28516 0 z M 449.3418 63.755859 C 456.86973 63.755859 463.4177 65.500821 468.98633 68.992188 C 474.55493 72.483552 478.88484 77.431195 481.97852 83.832031 C 485.07217 90.232869 486.61914 97.796977 486.61914 106.52539 C 486.61914 112.19885 486.20779 117.36242 485.38281 122.01758 C 484.55783 126.67272 483.16441 131.03806 481.20508 135.11133 C 479.24575 139.0391 476.56516 143.04003 473.16211 147.11328 C 469.75906 151.04107 465.5315 155.33116 460.47852 159.98633 C 456.04424 163.9141 452.33233 167.55254 449.3418 170.89844 C 446.45437 174.24431 444.08277 177.51637 442.22656 180.7168 C 440.37035 183.9172 438.97693 187.26253 438.04883 190.75391 L 489.25 190.75391 L 489.25 219.12305 L 413.45508 219.12305 L 413.45508 213.01172 C 413.45508 205.15616 413.9176 198.17436 414.8457 192.06445 C 415.7738 185.8091 417.32075 180.06324 419.48633 174.82617 C 421.75502 169.44366 424.74659 164.27814 428.45898 159.33203 C 432.27453 154.24047 436.96654 149.0769 442.53516 143.83984 C 447.69127 139.03922 451.71217 134.89176 454.59961 131.40039 C 457.48705 127.90902 459.49846 124.63698 460.63281 121.58203 C 461.87028 118.3816 462.48828 114.96302 462.48828 111.32617 C 462.48828 98.08808 456.45595 91.46875 444.39062 91.46875 C 439.33763 91.46875 434.43895 92.63336 429.69531 94.960938 C 425.05481 97.143039 420.46706 100.63298 415.92969 105.43359 L 415.92969 76.412109 C 421.18892 72.047904 426.49895 68.847177 431.86133 66.810547 C 437.22368 64.773917 443.05132 63.755859 449.3418 63.755859 z M 544.4707 63.755859 C 552.51427 63.755859 559.47552 65.500818 565.35352 68.992188 C 571.23149 72.338082 575.71687 77.212438 578.81055 83.613281 C 582.00734 90.014125 583.60742 97.578218 583.60742 106.30664 C 583.60742 113.28938 582.21399 119.54426 579.42969 125.07227 C 576.64537 130.60026 572.72682 134.96559 567.67383 138.16602 C 574.06742 142.38475 578.81062 147.76814 581.9043 154.31445 C 584.99797 160.7153 586.54492 168.49726 586.54492 177.66211 C 586.54492 186.68148 584.79328 194.53671 581.28711 201.22852 C 577.88407 207.77483 573.03658 212.86706 566.74609 216.50391 C 560.45562 220.14074 553.02987 221.95898 544.4707 221.95898 C 535.91153 221.95898 528.43656 220.21402 522.04297 216.72266 C 515.75249 213.23128 510.905 208.28366 507.50195 201.88281 C 504.09891 195.3365 502.39844 187.55452 502.39844 178.53516 C 502.39844 170.38862 504.04773 163.18701 507.34766 156.93164 C 510.75069 150.5308 515.54507 145.58512 521.73242 142.09375 C 510.80143 134.67459 505.33594 122.74516 505.33594 106.30664 C 505.33594 97.723692 506.93406 90.232875 510.13086 83.832031 C 513.43079 77.431188 518.02045 72.483556 523.89844 68.992188 C 529.77642 65.500818 536.63339 63.755859 544.4707 63.755859 z M 80.087891 64.089844 L 140.89844 64.089844 C 158.81837 64.089844 172.69974 67.615544 182.54102 74.666016 C 192.3823 81.569588 197.30273 91.556142 197.30273 104.62891 C 197.30273 112.12002 195.53892 118.65668 192.01367 124.23828 C 188.48846 129.67304 183.27471 134.0068 176.37109 137.23828 C 185.9186 140.32287 193.18953 145.24331 198.18359 152 C 203.32458 158.6098 205.89453 166.68882 205.89453 176.23633 C 205.89453 185.63695 203.39836 193.71592 198.4043 200.47266 C 193.55708 207.22934 186.57952 212.44313 177.47266 216.11523 C 168.36582 219.78737 157.42352 221.62305 144.64453 221.62305 L 80.087891 221.62305 L 80.087891 64.089844 z M 544.4707 89.287109 C 539.21145 89.287109 535.0882 91.032068 532.09766 94.523438 C 529.21022 97.869332 527.76563 102.59714 527.76562 108.70703 C 527.76562 114.08956 529.10592 118.45488 531.78711 121.80078 C 534.4683 125.0012 538.23331 127.11058 543.08008 128.12891 L 550.19531 129.4375 C 553.59836 127.54634 556.27896 124.85466 558.23828 121.36328 C 560.19761 117.72644 561.17773 113.50767 561.17773 108.70703 C 561.17773 102.59714 559.68195 97.869332 556.69141 94.523438 C 553.80398 91.032068 549.72996 89.287109 544.4707 89.287109 z M 112.91602 89.646484 L 112.91602 128.86523 L 137.81445 128.86523 C 146.33376 128.86523 152.7966 127.10337 157.20312 123.57812 C 161.75656 119.90603 164.0332 114.83791 164.0332 108.375 C 164.0332 95.889784 155.29376 89.646484 137.81445 89.646484 L 112.91602 89.646484 z M 873.31055 104.46875 C 885.99627 104.46875 895.73218 108.37736 902.51758 116.19531 C 909.45048 123.86576 912.91602 134.85574 912.91602 149.16406 L 912.91602 221.95898 L 880.16992 221.95898 L 880.16992 150.49023 C 880.16992 144.14737 878.69431 139.35457 875.74414 136.10938 C 872.94148 132.86418 868.73813 131.24023 863.13281 131.24023 C 854.57731 131.24023 847.34956 134.85606 841.44922 142.08398 L 841.44922 221.95898 L 808.70117 221.95898 L 808.70117 107.34375 L 836.80273 107.34375 L 838.57227 121.28516 C 848.01281 110.07451 859.59225 104.46875 873.31055 104.46875 z M 539.83203 151.04102 C 535.29464 153.07763 531.73627 156.13181 529.1582 160.20508 C 526.68327 164.13286 525.44531 168.93395 525.44531 174.60742 C 525.44531 181.29922 527.14773 186.60931 530.55078 190.53711 C 534.05695 194.4649 538.69584 196.42773 544.4707 196.42773 C 550.34869 196.42773 554.98953 194.53622 558.39258 190.75391 C 561.79561 186.82612 563.49805 181.37141 563.49805 174.38867 C 563.49805 168.1333 562.00228 163.18763 559.01172 159.55078 C 556.12429 155.76847 551.84556 153.36792 546.17383 152.34961 L 539.83203 151.04102 z M 112.91602 153.54297 L 112.91602 196.06641 L 141.55859 196.06641 C 151.39987 196.06641 158.96604 194.30259 164.25391 190.77734 C 169.54175 187.10526 172.18555 181.89146 172.18555 175.13477 C 172.18555 160.74005 162.12321 153.54297 142 153.54297 L 112.91602 153.54297 z " />
  <g
     aria-label="28"
     transform="scale(0.84194655,1.1877239)"
     id="text77492"
     style="font-weight:bold;font-size:183.722px;font-family:'BBC Reith Sans';-inkscape-font-specification:'BBC Reith Sans Bold';text-align:center;text-anchor:middle;fill:#ffffff;stroke-width:5.78652;stroke-linejoin:round" />
  <g
     aria-label="n"
     id="text77496"
     style="font-weight:bold;font-size:221.263px;font-family:'BBC Reith Sans';-inkscape-font-specification:'BBC Reith Sans Bold';text-align:center;text-anchor:middle;fill:#ffffff;stroke-width:6.96892;stroke-linejoin:round" />
</svg>
